<?xml version="1.0" encoding="UTF-8" standalone="no"?>
<!-- Created with Inkscape (http://www.inkscape.org/) -->

<svg
   xmlns:dc="http://purl.org/dc/elements/1.1/"
   xmlns:cc="http://creativecommons.org/ns#"
   xmlns:rdf="http://www.w3.org/1999/02/22-rdf-syntax-ns#"
   xmlns:svg="http://www.w3.org/2000/svg"
   xmlns="http://www.w3.org/2000/svg"
   xmlns:sodipodi="http://sodipodi.sourceforge.net/DTD/sodipodi-0.dtd"
   xmlns:inkscape="http://www.inkscape.org/namespaces/inkscape"
   width="45.24015mm"
   height="49.477112mm"
   viewBox="0 0 45.24015 49.477112"
   version="1.1"
   id="svg8"
   inkscape:version="0.92.3 (2405546, 2018-03-11)"
   sodipodi:docname="logo.svg">
  <defs
     id="defs2" />
  <sodipodi:namedview
     id="base"
     pagecolor="#ffffff"
     bordercolor="#666666"
     borderopacity="1.0"
     inkscape:pageopacity="0.0"
     inkscape:pageshadow="2"
     inkscape:zoom="4"
     inkscape:cx="100.59165"
     inkscape:cy="86.511957"
     inkscape:document-units="mm"
     inkscape:current-layer="layer1"
     showgrid="false"
     inkscape:snap-intersection-paths="true"
     inkscape:snap-smooth-nodes="true"
     inkscape:snap-midpoints="true"
     inkscape:window-width="1859"
     inkscape:window-height="1025"
     inkscape:window-x="61"
     inkscape:window-y="27"
     inkscape:window-maximized="1" />
  <metadata
     id="metadata5">
    <rdf:RDF>
      <cc:Work
         rdf:about="">
        <dc:format>image/svg+xml</dc:format>
        <dc:type
           rdf:resource="http://purl.org/dc/dcmitype/StillImage" />
        <dc:title></dc:title>
      </cc:Work>
    </rdf:RDF>
  </metadata>
  <g
     inkscape:label="Layer 1"
     inkscape:groupmode="layer"
     id="layer1"
     transform="translate(-127.58185,-136.82524)">
    <path
       style="fill:#193349;stroke-width:0.26458332;fill-opacity:1"
       d="m 147.68659,136.82524 v 3.23288 3.23288 l -1.59009,-1.57355 -1.5906,-1.57407 -1.62677,1.62729 -1.62677,1.62678 3.21427,3.39462 2.9409,3.10524 2.7957,-4.81883 2.79311,4.81521 2.93729,-3.10162 3.21479,-3.39462 -1.62677,-1.62678 -1.6273,-1.62729 -1.59008,1.57407 -1.5906,1.57355 v -3.23288 -3.23288 h -2.51354 z m 14.10508,8.10493 c -0.32938,-0.027 -0.69737,0.93999 -1.64745,4.32997 l -1.22369,4.36511 -2.77348,1.69964 2.47065,4.25917 2.75281,-1.56321 4.30774,1.18597 c 2.36918,0.65224 4.43408,1.14351 4.58887,1.09192 0.15479,-0.0516 0.54033,-1.12376 0.8568,-2.3828 l 0.57567,-2.28926 -2.08463,-0.46871 c -1.14652,-0.2577 -2.08462,-0.53112 -2.08462,-0.60771 0,-0.0766 1.18916,-0.79223 2.64273,-1.59009 1.45357,-0.79787 2.64383,-1.51975 2.64583,-1.60455 0.007,-0.35818 -2.22239,-4.21163 -2.43654,-4.21163 -0.129,0 -1.37503,0.65897 -2.76934,1.46399 -1.39433,0.80503 -2.57663,1.4221 -2.62723,1.3715 -0.0506,-0.0506 0.14408,-0.91733 0.43253,-1.92598 0.28845,-1.00865 0.52452,-1.91063 0.52452,-2.00453 0,-0.16401 -3.27607,-1.04689 -4.15117,-1.1188 z m -22.87767,0.0238 c -0.56793,-0.033 -4.17884,0.76908 -4.41162,0.99994 -0.0483,0.0479 0.15775,0.95316 0.45733,2.01176 0.29959,1.05863 0.50353,1.96559 0.45373,2.01539 -0.0498,0.0498 -1.23135,-0.56802 -2.62568,-1.37305 -1.39432,-0.80502 -2.63722,-1.46399 -2.76211,-1.46399 -0.22648,0 -2.44978,3.79065 -2.44378,4.16719 0.002,0.1091 1.19228,0.85112 2.64584,1.64899 1.45357,0.79786 2.64273,1.51349 2.64273,1.59009 0,0.0766 -0.93811,0.35001 -2.08463,0.60771 l -2.08411,0.46871 0.57516,2.28926 c 0.31647,1.25904 0.702,2.3312 0.85679,2.3828 0.15479,0.0516 2.21969,-0.43968 4.58887,-1.09192 l 4.30775,-1.18597 2.75642,1.56528 2.39882,-4.13464 c -1.2804,-0.73295 -2.35043,-1.38244 -2.49546,-1.52393 -0.16974,-0.16561 -0.81002,-2.20627 -1.42316,-4.53461 -0.61313,-2.32833 -1.18998,-4.31767 -1.28158,-4.42092 -0.009,-0.01 -0.0335,-0.0159 -0.0713,-0.0181 z m 11.28923,3.44527 -2.51974,4.34289 0.001,1.06401 0.003,3.61891 -2.05155,-1.1529 -0.76326,1.31516 5.29683,3.01274 5.33817,-3.05822 -0.78651,-1.35547 c -0.9885,0.58689 -1.73058,1.0035 -1.80816,1.00563 -0.10913,0.003 -0.19837,-1.57138 -0.19637,-3.49953 l 10e-4,-0.95963 z m 6.19032,10.67015 -6.22029,3.56154 -6.18722,-3.51503 -0.76223,1.31361 c 0.94708,0.57808 1.61696,1.03938 1.61696,1.1343 0,0.13433 -1.30697,0.98676 -2.90474,1.89394 l -0.6997,0.39739 -3.36878,5.80585 -8.75709,5.01416 c 0.44,0.72816 0.8256,1.30845 0.90847,1.30845 0.129,0 1.37503,-0.65845 2.76934,-1.46347 1.39433,-0.80503 2.57588,-1.42285 2.62568,-1.37305 0.0498,0.0498 -0.15465,0.95625 -0.45424,2.01487 -0.29958,1.05861 -0.50511,1.95748 -0.45681,1.99729 0.30051,0.24753 4.31045,1.43773 4.43435,1.3162 0.0835,-0.0819 0.68766,-2.13316 1.34307,-4.55838 l 1.19166,-4.40955 2.90938,-1.78232 c 1.60016,-0.9805 2.99868,-1.78604 3.10782,-1.78903 0.10913,-0.003 0.19786,1.57086 0.19586,3.49901 l -0.003,3.50573 -3.21428,3.39462 -3.21479,3.39462 1.62678,1.62729 1.62729,1.62678 1.59008,-1.57355 1.5906,-1.57406 v 3.23288 3.23287 h 2.51354 2.51303 v -3.23287 -3.23288 l 1.5906,1.57406 1.59008,1.57355 1.62729,-1.62678 1.62678,-1.62729 -3.21479,-3.39462 -3.21428,-3.39462 -0.003,-3.50573 c -0.001,-1.92815 0.0872,-3.50302 0.19637,-3.49901 0.10914,0.003 1.50766,0.80853 3.10782,1.78903 l 2.90939,1.78232 1.21491,4.49482 c 1.01561,3.75673 1.2925,4.48784 1.68775,4.45244 1.01141,-0.0905 4.11086,-0.99706 4.11086,-1.20251 0,-0.11931 -0.23651,-1.07052 -0.52555,-2.11357 -0.28905,-1.04305 -0.48373,-1.93834 -0.43253,-1.98954 0.0512,-0.0512 1.23394,0.56595 2.62826,1.37098 1.39433,0.80502 2.64034,1.46347 2.76934,1.46347 0.0855,0 0.487,-0.6072 0.93896,-1.35857 l -8.78086,-4.95835 -3.3693,-5.80844 -0.7059,-0.40049 c -1.59777,-0.90718 -2.92046,-1.75072 -2.93935,-1.8743 -0.0136,-0.0889 0.67239,-0.56091 1.65364,-1.15755 z m -26.2599,3.75946 c -0.15479,0.0516 -0.54032,1.12427 -0.85679,2.38332 l -0.57516,2.28926 2.08411,0.46819 c 1.14652,0.25769 2.08463,0.53112 2.08463,0.60772 0,0.0766 -1.18916,0.79222 -2.64273,1.59008 -1.45356,0.79787 -2.64384,1.52017 -2.64584,1.60507 -0.003,0.13228 0.30178,0.74332 0.69505,1.45883 l 8.37416,-4.79299 1.9942,-3.43752 -3.92276,-1.07952 c -2.36918,-0.65224 -4.43408,-1.14404 -4.58887,-1.09244 z m 40.13347,0 c -0.15479,-0.0516 -2.21969,0.4402 -4.58887,1.09244 l -3.91914,1.07849 1.99161,3.43338 8.39949,4.747 c 0.37899,-0.69363 0.67179,-1.28387 0.67179,-1.41852 0,-0.0907 -1.19062,-0.75058 -2.64583,-1.46658 -1.45521,-0.71598 -2.64583,-1.38288 -2.64583,-1.48208 0,-0.0992 0.32743,-0.26032 0.7276,-0.35812 0.40019,-0.0978 1.33796,-0.3527 2.08411,-0.56689 l 1.35651,-0.38964 -0.57516,-2.28771 c -0.31627,-1.25827 -0.70149,-2.33017 -0.85628,-2.38177 z"
       id="path826-3"
       inkscape:connector-curvature="0" />
  </g>
</svg>
