<?xml version="1.0" encoding="UTF-8" standalone="no"?>
<!-- Created with Inkscape (http://www.inkscape.org/) -->

<svg
   xmlns:dc="http://purl.org/dc/elements/1.1/"
   xmlns:cc="http://creativecommons.org/ns#"
   xmlns:rdf="http://www.w3.org/1999/02/22-rdf-syntax-ns#"
   xmlns:svg="http://www.w3.org/2000/svg"
   xmlns="http://www.w3.org/2000/svg"
   xmlns:sodipodi="http://sodipodi.sourceforge.net/DTD/sodipodi-0.dtd"
   xmlns:inkscape="http://www.inkscape.org/namespaces/inkscape"
   width="119.59405mm"
   height="131.25371mm"
   viewBox="0 0 119.59405 131.25371"
   version="1.1"
   id="svg903"
   inkscape:version="0.92.3 (2405546, 2018-03-11)"
   sodipodi:docname="download.svg">
  <defs
     id="defs897" />
  <sodipodi:namedview
     id="base"
     pagecolor="#ffffff"
     bordercolor="#666666"
     borderopacity="1.0"
     inkscape:pageopacity="0.0"
     inkscape:pageshadow="2"
     inkscape:zoom="0.35"
     inkscape:cx="-83.995501"
     inkscape:cy="25.181352"
     inkscape:document-units="mm"
     inkscape:current-layer="layer1"
     showgrid="false"
     inkscape:window-width="930"
     inkscape:window-height="1025"
     inkscape:window-x="61"
     inkscape:window-y="27"
     inkscape:window-maximized="0" />
  <metadata
     id="metadata900">
    <rdf:RDF>
      <cc:Work
         rdf:about="">
        <dc:format>image/svg+xml</dc:format>
        <dc:type
           rdf:resource="http://purl.org/dc/dcmitype/StillImage" />
        <dc:title></dc:title>
      </cc:Work>
    </rdf:RDF>
  </metadata>
  <g
     inkscape:label="Layer 1"
     inkscape:groupmode="layer"
     id="layer1"
     transform="translate(3.8565474,-24.242195)">
    <g
       id="g1452"
       transform="matrix(0.26458333,0,0,0.26458333,-11.792989,22.135847)"
       style="fill:#193349;fill-opacity:1">
	<path
   id="path1448"
   d="m 448.608,351.791 c -18.444,0 -33.4,14.952 -33.4,33.396 v 52.055 H 96.788 v -52.055 c 0,-18.443 -14.952,-33.396 -33.396,-33.396 -18.444,0 -33.396,14.952 -33.396,33.396 v 85.451 c 0,18.443 14.952,33.4 33.396,33.4 h 385.217 c 18.443,0 33.396,-14.957 33.396,-33.4 v -85.451 c 0,-18.444 -14.953,-33.396 -33.397,-33.396 z"
   inkscape:connector-curvature="0"
   style="fill:#193349;fill-opacity:1" />

	<path
   id="path1450"
   d="m 245.918,387.325 c 5.563,5.559 14.6,5.559 20.157,0 L 383.114,270.287 c 3.41,-3.41 4.423,-8.532 2.579,-13 -1.844,-4.45 -6.18,-7.351 -11.012,-7.351 H 319.727 V 34.024 c 0,-14.402 -11.661,-26.063 -26.06,-26.063 h -75.323 c -14.398,0 -26.06,11.66 -26.06,26.063 v 215.912 h -54.973 c -4.827,0 -9.163,2.9 -11.007,7.351 -1.844,4.468 -0.83,9.59 2.575,13 z"
   inkscape:connector-curvature="0"
   style="fill:#193349;fill-opacity:1" />

</g>
  </g>
</svg>
