<?xml version="1.0" encoding="UTF-8" standalone="no"?>
<svg
   xmlns:dc="http://purl.org/dc/elements/1.1/"
   xmlns:cc="http://creativecommons.org/ns#"
   xmlns:rdf="http://www.w3.org/1999/02/22-rdf-syntax-ns#"
   xmlns:svg="http://www.w3.org/2000/svg"
   xmlns="http://www.w3.org/2000/svg"
   xmlns:sodipodi="http://sodipodi.sourceforge.net/DTD/sodipodi-0.dtd"
   xmlns:inkscape="http://www.inkscape.org/namespaces/inkscape"
   inkscape:version="1.0 (4035a4f, 2020-05-01)"
   sodipodi:docname="drawing-3-mac.svg"
   id="svg8"
   version="1.1"
   viewBox="0 0 151.30336 21.598509"
   height="21.598509mm"
   width="151.30336mm">
  <defs
     id="defs2" />
  <sodipodi:namedview
     inkscape:document-rotation="0"
     inkscape:window-maximized="1"
     inkscape:window-y="0"
     inkscape:window-x="0"
     inkscape:window-height="778"
     inkscape:window-width="1280"
     showgrid="false"
     inkscape:current-layer="layer1"
     inkscape:document-units="mm"
     inkscape:cy="122.43789"
     inkscape:cx="291.75298"
     inkscape:zoom="1.979899"
     inkscape:pageshadow="2"
     inkscape:pageopacity="0.0"
     borderopacity="1.0"
     bordercolor="#666666"
     pagecolor="#ffffff"
     id="base" />
  <metadata
     id="metadata5">
    <rdf:RDF>
      <cc:Work
         rdf:about="">
        <dc:format>image/svg+xml</dc:format>
        <dc:type
           rdf:resource="http://purl.org/dc/dcmitype/StillImage" />
        <dc:title></dc:title>
      </cc:Work>
    </rdf:RDF>
  </metadata>
  <g
     transform="translate(-12.100025,-40.43062)"
     id="layer1"
     inkscape:groupmode="layer"
     inkscape:label="Layer 1">
    <text
       transform="scale(0.90243211,1.1081166)"
       id="text158"
       y="55.296879"
       x="21.100735"
       style="font-style:normal;font-variant:normal;font-weight:normal;font-stretch:normal;font-size:23.4551px;line-height:1.25;font-family:'.Aqua Kana';-inkscape-font-specification:'.Aqua Kana';fill:#552200;fill-opacity:1;stroke:none;stroke-width:0.293188"
       xml:space="preserve"><tspan
         style="font-style:normal;font-variant:normal;font-weight:bold;font-stretch:normal;font-size:23.4551px;font-family:'.Aqua Kana';-inkscape-font-specification:'.Aqua Kana';fill:#552200;stroke-width:0.293188"
         y="55.296879"
         x="21.100735"
         id="tspan156"
         sodipodi:role="line">SNOWLINES</tspan></text>
    <path
       id="path255"
       d="m 29.580271,52.045941 c -3.970559,-0.811981 -7.463351,-1.7203 -7.792756,-2.026548 -0.15796,-0.146855 -0.458638,-0.638072 -0.668174,-1.091594 -0.357297,-0.773339 -0.380974,-0.932981 -0.380974,-2.568767 v -1.744183 l 0.499089,-1.009836 c 0.601921,-1.217906 1.37877,-1.977686 2.612341,-2.554943 0.786448,-0.368024 1.057063,-0.421864 2.373728,-0.472262 1.137675,-0.04355 1.671461,-0.0034 2.276776,0.171336 2.18382,0.630322 3.3794,1.906563 4.048715,4.321865 l 0.258744,0.93371 -1.09021,0.158332 c -0.599616,0.08708 -1.248139,0.189425 -1.441163,0.227427 -0.327149,0.06441 -0.362004,0.02303 -0.513868,-0.610008 -0.340213,-1.418168 -1.362032,-2.267175 -2.873022,-2.387131 -2.080156,-0.165141 -3.445026,0.954264 -3.445026,2.825454 0,0.918403 0.203016,1.424579 0.789878,1.969392 0.559929,0.519809 0.982267,0.697319 3.109144,1.306785 2.471693,0.708274 3.444933,1.187811 4.29221,2.114867 0.619464,0.677792 0.798139,0.983243 0.561845,0.960492 -0.05512,-0.0053 -1.232899,-0.241282 -2.617277,-0.524388 z"
       style="fill:#ffffff;stroke-width:0.133635" />
    <path
       id="path257"
       d="m 45.327165,54.249614 c -0.0735,-0.02558 -0.658276,-0.08624 -1.299504,-0.134794 l -1.165868,-0.08828 -1.499762,-2.761211 c -0.824867,-1.518666 -1.820672,-3.452771 -2.212895,-4.298011 l -0.713136,-1.5368 0.09233,4.061268 0.09233,4.061268 -0.455335,-0.07857 c -0.250434,-0.04321 -0.791876,-0.11759 -1.203203,-0.165283 -0.411327,-0.04769 -0.812795,-0.126843 -0.892151,-0.175888 -0.09879,-0.06106 -0.157931,-1.995078 -0.187575,-6.134429 l -0.04329,-6.045259 1.541384,6.4e-5 1.541382,6.3e-5 0.223216,0.602267 c 0.15779,0.425733 5.524823,10.503677 6.742639,12.660983 0.05639,0.09989 -0.306612,0.121002 -0.560551,0.03261 z"
       style="fill:#ffffff;stroke-width:0.133635" />
    <path
       id="path259"
       d="m 48.2348,54.485298 c -0.869418,-0.04141 -0.97477,-0.07606 -1.036669,-0.340943 -0.03789,-0.162165 -0.08348,-3.196411 -0.101306,-6.742769 l -0.03241,-6.447923 1.455611,4.6e-5 1.45561,4.6e-5 -0.08585,0.821411 c -0.04722,0.451777 -0.08585,3.518695 -0.08585,6.815373 V 54.5845 l -0.300678,-0.02655 c -0.165373,-0.0146 -0.736174,-0.0473 -1.26845,-0.07265 z"
       style="fill:#ffffff;stroke-width:0.133635" />
    <path
       id="path261"
       d="M 53.851354,54.752646 52.88748,54.706626 52.782276,54.21125 c -0.05786,-0.272458 -0.103333,-1.668021 -0.10105,-3.101254 0.0049,-3.086384 0.22669,-4.230273 1.214798,-6.265819 1.900391,-3.914889 6.16553,-5.40841 9.86028,-3.452769 3.207006,1.697478 4.997574,6.578918 4.350472,11.86025 -0.213048,1.738818 -0.06639,1.600111 -1.691812,1.600111 h -1.411645 l 0.0881,-0.50113 c 0.423381,-2.408314 0.405712,-4.306505 -0.05853,-6.287232 -0.489352,-2.087871 -1.410814,-3.460212 -2.772275,-4.128776 -0.656429,-0.322348 -0.923131,-0.374736 -1.899542,-0.373125 -0.976257,0.0016 -1.233731,0.05319 -1.832025,0.366984 -1.304952,0.684426 -2.25489,2.019906 -2.779403,3.907454 -0.420378,1.512806 -0.402537,5.715513 0.02904,6.840185 0.04946,0.128896 -0.06977,0.168573 -0.44803,0.149087 -0.283485,-0.0146 -0.949171,-0.04726 -1.479304,-0.07257 z"
       style="fill:#ffffff;stroke-width:0.133635" />
    <path
       id="path263"
       d="M 71.714841,49.706832 C 71.105878,46.987364 70.388286,43.905413 70.120192,42.85805 L 69.63275,40.953755 h 1.562592 c 1.724808,0 1.720776,-0.0023 1.725575,0.971548 0.0011,0.203605 0.545452,3.112767 1.209882,6.464804 0.664432,3.352037 1.190619,6.111031 1.169304,6.131096 -0.02133,0.02007 -0.587597,0.05755 -1.258405,0.0833 l -1.219653,0.04682 z"
       style="fill:#ffffff;stroke-width:0.133635" />
    <path
       id="path265"
       d="m 76.26361,54.340979 c 0,-0.06616 0.569005,-2.549098 1.264452,-5.517637 0.695449,-2.968539 1.369496,-5.953599 1.497885,-6.633466 l 0.233432,-1.236121 h 1.224412 1.224412 l 0.08479,0.634765 c 0.04663,0.349121 0.708369,3.280733 1.470522,6.514695 l 1.385734,5.879929 -1.142441,0.09927 c -0.628343,0.0546 -1.162246,0.07947 -1.186448,0.05527 -0.07687,-0.07687 -1.357349,-5.71568 -1.591355,-7.007799 -0.123571,-0.682328 -0.241366,-1.223549 -0.261765,-1.202713 -0.0204,0.02084 -0.254222,1.090257 -0.519605,2.376492 -0.265382,1.286234 -0.682215,3.180507 -0.926298,4.209495 l -0.443786,1.870886 -1.15697,0.03861 c -0.63633,0.02124 -1.156967,-0.01552 -1.156967,-0.08168 z"
       style="fill:#ffffff;stroke-width:0.133635" />
    <path
       id="path267"
       d="m 85.75196,53.814643 c 1.53e-4,-0.05432 0.510834,-2.654533 1.134843,-5.778246 0.624012,-3.123712 1.135038,-5.900068 1.135615,-6.169678 0.0019,-0.916868 -0.0055,-0.912964 1.739522,-0.912964 h 1.576242 l -0.19539,0.634765 c -0.107463,0.349121 -0.782687,3.205138 -1.500499,6.346704 -0.717815,3.141567 -1.330598,5.734054 -1.361742,5.761082 -0.115721,0.100426 -2.528861,0.213359 -2.528591,0.118337 z"
       style="fill:#ffffff;stroke-width:0.133635" />
    <path
       id="path269"
       d="m 93.36739,47.639809 c -7.93e-4,-3.126086 -0.03875,-5.909302 -0.0843,-6.184924 l -0.08283,-0.50113 1.520875,-6.6e-5 1.520875,-6.6e-5 -0.0399,6.042391 c -0.02193,3.323315 -0.05201,6.05438 -0.06682,6.069033 -0.01482,0.01465 -0.643311,0.07882 -1.396675,0.142598 l -1.369758,0.115957 z"
       style="fill:#ffffff;stroke-width:0.133635" />
    <path
       id="path271"
       d="m 106.99845,47.278707 c -6.4e-4,-2.706983 -0.0391,-5.237499 -0.0854,-5.62337 l -0.0843,-0.701582 1.522,-6.9e-5 1.52201,-6.9e-5 -0.0391,5.507091 c -0.0215,3.0289 -0.0516,5.517019 -0.0668,5.529153 -0.0152,0.01213 -0.64408,0.06449 -1.39744,0.116348 l -1.36976,0.09429 z"
       style="fill:#ffffff;stroke-width:0.133635" />
    <path
       id="path273"
       d="m 113.24597,46.533006 c -0.0409,-2.811341 -0.11719,-5.218675 -0.16951,-5.349631 -0.0886,-0.221762 0.0171,-0.235518 1.54033,-0.200452 l 1.63547,0.03765 0.25391,0.646977 c 0.13965,0.355837 1.31132,2.599722 2.60371,4.98641 1.29239,2.386687 2.32153,4.367697 2.28699,4.402243 -0.0345,0.03455 -0.66422,0.09945 -1.39928,0.144232 l -1.33647,0.08142 -1.00457,-1.923407 c -0.55252,-1.057874 -1.17229,-2.314289 -1.37727,-2.792033 -0.20498,-0.477745 -0.41121,-0.91461 -0.45828,-0.970812 -0.0471,-0.0562 -0.0591,1.242475 -0.0267,2.885949 l 0.0589,2.988135 -0.71841,0.08626 c -0.39513,0.04744 -0.96501,0.08678 -1.26641,0.08742 l -0.548,0.0012 z"
       style="fill:#ffffff;stroke-width:0.133635" />
    <path
       id="path275"
       d="m 124.50481,46.818484 c -5.3e-4,-2.233363 -0.0393,-4.466576 -0.0861,-4.962695 l -0.0852,-0.902034 1.4559,-7.2e-5 1.4559,-7.3e-5 -0.0383,4.838096 c -0.0211,2.660952 -0.0644,4.864225 -0.0964,4.896161 -0.0319,0.03194 -0.63108,0.08804 -1.33144,0.124672 l -1.27339,0.06661 z"
       style="fill:#ffffff;stroke-width:0.133635" />
    <path
       id="path277"
       d="m 130.48927,45.81572 c -0.0202,-2.637331 -0.0358,-4.806109 -0.0347,-4.819506 0.001,-0.0134 2.63212,-0.04347 5.84659,-0.06682 l 5.84451,-0.04246 -4e-5,1.5368 -4e-5,1.5368 -4.40998,-0.04695 -4.40997,-0.04695 v 2.76508 2.76508 l 3.94229,-0.04544 3.94229,-0.04544 -7e-5,0.40825 -6e-5,0.408249 -4.77745,0.168491 c -2.62759,0.09267 -5.03151,0.20257 -5.34203,0.244221 l -0.5646,0.07573 z"
       style="fill:#ffffff;stroke-width:0.133635" />
    <path
       id="path281"
       d="m 148.93163,50.074478 -2.90245,-0.03875 -0.33325,-0.568648 c -0.54419,-0.928596 -0.78656,-2.125066 -0.70942,-3.502023 0.1909,-3.407133 2.37789,-5.415183 5.89279,-5.410621 3.16724,0.0041 5.14153,1.462625 5.9547,4.399058 0.15124,0.546127 0.26077,1.006154 0.2434,1.022282 -0.0303,0.02815 -2.66304,0.457003 -2.80557,0.457003 -0.0382,0 -0.11119,-0.222712 -0.16225,-0.494915 -0.32731,-1.744676 -1.74777,-2.718188 -3.70693,-2.540537 -1.62119,0.147004 -2.64444,1.222902 -2.64444,2.780502 0,0.91984 0.15977,1.392779 0.64327,1.904214 0.51758,0.54749 1.07001,0.788859 3.0985,1.35382 2.268,0.631665 2.4594,0.737797 1.26954,0.703962 -0.5145,-0.01463 -2.24155,-0.04404 -3.83789,-0.06535 z"
       style="fill:#ffffff;stroke-width:0.133635" />
    <path
       id="path130-7"
       style="fill:#ff0000;stroke-width:0.235077"
       d="m 59.836076,55.877084 c -16.66786,-0.05022 -33.820611,-1.987117 -47.736051,-9.634246 1.159635,0.512271 2.289799,1.067232 3.485058,1.527485 19.690188,7.390328 42.035093,7.858493 63.448793,6.550066 0.007,0.03072 0.011,0.02733 0.0124,-6.64e-4 1.34086,-0.08192 2.67897,-0.16956 4.01164,-0.264209 18.755984,-1.424102 37.423834,-3.598202 56.268384,-4.224759 8.0309,-0.0947 16.71,-0.847797 24.07708,2.179894 -17.08378,-2.052133 -34.41615,-0.625733 -51.45112,1.006853 -14.915848,1.709576 -29.962894,2.371974 -45.013254,2.777122 -2.35047,0.0587 -4.72181,0.08962 -7.10293,0.08244 z"
       inkscape:connector-curvature="0" />
  </g>
</svg>
