<?xml version="1.0" encoding="UTF-8" standalone="no"?>
<!-- Created with Inkscape (http://www.inkscape.org/) -->

<svg
   xmlns:dc="http://purl.org/dc/elements/1.1/"
   xmlns:cc="http://creativecommons.org/ns#"
   xmlns:rdf="http://www.w3.org/1999/02/22-rdf-syntax-ns#"
   xmlns:svg="http://www.w3.org/2000/svg"
   xmlns="http://www.w3.org/2000/svg"
   xmlns:sodipodi="http://sodipodi.sourceforge.net/DTD/sodipodi-0.dtd"
   xmlns:inkscape="http://www.inkscape.org/namespaces/inkscape"
   width="106.16605mm"
   height="19.614138mm"
   viewBox="0 0 106.16605 19.614138"
   version="1.1"
   id="svg8"
   inkscape:version="0.92.3 (2405546, 2018-03-11)"
   sodipodi:docname="logo.svg">
  <defs
     id="defs2" />
  <sodipodi:namedview
     id="base"
     pagecolor="#ffffff"
     bordercolor="#666666"
     borderopacity="1.0"
     inkscape:pageopacity="0.0"
     inkscape:pageshadow="2"
     inkscape:zoom="0.7"
     inkscape:cx="413.43747"
     inkscape:cy="-48.775337"
     inkscape:document-units="mm"
     inkscape:current-layer="layer1"
     showgrid="false"
     inkscape:window-width="1859"
     inkscape:window-height="1025"
     inkscape:window-x="61"
     inkscape:window-y="27"
     inkscape:window-maximized="1" />
  <metadata
     id="metadata5">
    <rdf:RDF>
      <cc:Work
         rdf:about="">
        <dc:format>image/svg+xml</dc:format>
        <dc:type
           rdf:resource="http://purl.org/dc/dcmitype/StillImage" />
        <dc:title></dc:title>
      </cc:Work>
    </rdf:RDF>
  </metadata>
  <g
     inkscape:label="Layer 1"
     inkscape:groupmode="layer"
     id="layer1"
     transform="translate(-43.939672,-166.7772)">
    <path
       style="fill:#ff0000;stroke-width:0.26458338"
       d="m 84.156341,186.2267 c 0,-0.0873 -0.307729,-1.30765 -0.683842,-2.71198 -0.376113,-1.40432 -1.020839,-3.86301 -1.432724,-5.46374 -0.411885,-1.60072 -1.129937,-4.33916 -1.595673,-6.08541 -1.30924,-4.90893 -1.310026,-4.91325 -0.921872,-5.0622 0.18982,-0.0728 0.801444,-0.0947 1.35916,-0.0487 l 1.014031,0.0838 0.567989,2.24896 c 1.487705,5.89058 2.81119,10.73428 2.981455,10.91159 0.103502,0.10777 0.641133,-2.57113 1.194736,-5.95313 0.553604,-3.38199 1.069126,-6.4227 1.145607,-6.75712 0.125857,-0.55033 0.266917,-0.60055 1.48655,-0.52916 1.524212,0.0892 1.436003,-0.0761 2.018882,3.78303 0.731809,4.8452 1.083279,6.99583 1.36206,8.33438 0.25696,1.23379 0.336841,1.36466 0.524949,0.86013 0.253301,-0.67935 2.54627,-9.38018 2.946021,-11.17888 0.359029,-1.61549 0.60886,-1.85209 1.955689,-1.85209 1.363261,0 1.356051,-0.0336 0.60085,2.80195 -0.30657,1.15107 -0.71089,2.68816 -0.898501,3.41576 -0.187597,0.72761 -0.907108,3.46604 -1.598909,6.08542 -0.69179,2.61937 -1.382551,5.32805 -1.535009,6.01927 l -0.277201,1.25677 h -1.637581 -1.637577 l -0.289743,-1.65365 c -0.159348,-0.9095 -0.531029,-3.13301 -0.82595,-4.94112 -0.498774,-3.05799 -0.667617,-3.71772 -0.879705,-3.43735 -0.04587,0.0606 -0.41004,2.13431 -0.809278,4.60816 -0.399235,2.47386 -0.78645,4.70628 -0.860478,4.96094 -0.108664,0.37382 -0.437004,0.46302 -1.704266,0.46302 -0.863317,0 -1.56967,-0.0714 -1.56967,-0.15866 z"
       id="path828-3"
       inkscape:connector-curvature="0"
       sodipodi:nodetypes="cccscccscsccccccsccccccccccccscc" />
    <path
       style="fill:#000000;stroke-width:0.26458335"
       d="m 45.579583,185.94276 c -1.149845,-0.56667 -1.639911,-1.58129 -1.639911,-3.39522 v -1.48284 l 1.256771,0.0806 1.256771,0.0806 0.08586,1.05498 c 0.121758,1.49605 0.409886,1.72315 2.186185,1.72315 1.878252,0 2.157128,-0.35352 2.040432,-2.58658 l -0.07914,-1.51446 -2.82658,-2.11667 c -3.580728,-2.6814 -3.920296,-3.23719 -3.920296,-6.41649 0,-2.03639 0.08192,-2.47983 0.573591,-3.10489 0.812886,-1.03342 2.034417,-1.45883 4.18891,-1.45883 3.272137,0 4.440506,0.93015 4.695096,3.73781 l 0.140899,1.55386 h -1.359667 -1.359665 v -1.03943 c 0,-1.39551 -0.529862,-1.87099 -2.084996,-1.87099 -1.918692,0 -2.190232,0.32649 -2.095645,2.51972 l 0.0796,1.84569 2.825856,2.11677 c 1.554221,1.16423 3.042502,2.47397 3.307292,2.91053 0.371068,0.61179 0.481436,1.33965 0.481436,3.175 0,2.08078 -0.07904,2.49207 -0.626411,3.25952 -0.344527,0.48305 -0.917825,0.98906 -1.273996,1.12448 -1.089587,0.41426 -4.870784,0.28737 -5.852391,-0.19639 z m 10.26634,-9.36081 v -9.80341 l 1.370628,0.08 1.370629,0.08 0.704967,2.11667 c 2.156402,6.4746 2.921919,8.67645 3.156175,9.07808 0.176919,0.30332 0.263261,-1.44462 0.268722,-5.44006 l 0.008,-5.88698 h 1.322916 1.322917 v 9.78959 9.78958 H 64.09043 c -1.527342,0 -1.283412,0.41491 -3.353487,-5.70405 -2.294475,-6.78227 -2.222251,-6.78063 -2.234639,-0.0506 l -0.01059,5.75469 h -1.322875 -1.322916 z m 14.155209,9.55099 c -0.291042,-0.12038 -0.826823,-0.53894 -1.190626,-0.93013 l -0.661458,-0.71125 -0.07388,-7.45362 c -0.06653,-6.71251 -0.02707,-7.5457 0.396875,-8.37966 0.673393,-1.32467 1.898578,-1.85126 4.30721,-1.85126 2.413793,0 3.637502,0.52695 4.299069,1.85126 0.405164,0.81105 0.462658,1.78954 0.463021,7.87985 5.29e-4,7.56338 -0.100542,8.20553 -1.458418,9.27364 -0.631465,0.49671 -1.052449,0.57134 -3.140917,0.55682 -1.326443,-0.009 -2.649839,-0.11527 -2.94088,-0.23565 z m 4.6209,-2.6406 c 0.167415,-0.31282 0.273891,-3.03117 0.273891,-6.99256 0,-7.37688 0.01784,-7.31234 -2.020668,-7.31234 -2.321745,0 -2.212665,-0.36307 -2.212665,7.36473 0,4.94929 0.08699,6.90393 0.3175,7.13444 0.174625,0.17462 1.003874,0.3175 1.842775,0.3175 1.237205,0 1.577002,-0.0967 1.799167,-0.51177 z m 26.467648,-6.91106 v -9.80408 l 1.25677,0.0806 1.25677,0.0806 0.0698,8.53282 0.0698,8.53281 h 3.83698 3.83698 l -0.0703,-7.34219 -0.0703,-7.34219 -1.27124,-0.0812 -1.27125,-0.0812 0.0806,-1.10939 0.0806,-1.1094 h 3.83646 3.83646 l 0.0806,1.1094 0.0806,1.10939 -1.27124,0.0812 -1.27125,0.0812 -0.0703,7.32753 -0.0703,7.32752 1.26093,0.0808 1.26093,0.0808 0.0814,1.12448 0.0814,1.12448 h -7.82042 -7.82043 z m 17.4625,6.6e-4 v -9.80341 l 1.37062,0.08 1.37063,0.08 0.70497,2.11666 c 2.1564,6.47461 2.92192,8.67645 3.15618,9.07808 0.17691,0.30332 0.26326,-1.44462 0.26872,-5.44006 l 0.008,-5.88697 h 1.32292 1.32292 v 9.78959 9.78958 h -1.28045 c -1.52734,0 -1.28341,0.41491 -3.35349,-5.70405 -2.29447,-6.78227 -2.22225,-6.78063 -2.23464,-0.0506 l -0.0106,5.75469 h -1.32292 -1.32291 v -9.80341 z m 15.01827,8.61123 c -0.97742,-0.6557 -1.96022,-1.54624 -2.184,-1.97898 -0.34399,-0.66521 -0.39603,-1.98363 -0.33672,-8.53126 l 0.0701,-7.74445 3.77032,-0.0734 3.77031,-0.0734 v 1.18797 1.18796 l -2.4474,0.0761 -2.44739,0.0761 -0.0748,2.97657 -0.0748,2.97656 h 1.988 c 1.87738,0 1.99686,0.0353 2.14726,0.63455 0.0876,0.349 0.11962,0.91454 0.0712,1.25677 -0.0815,0.57595 -0.23564,0.63206 -2.07245,0.75451 l -1.98437,0.13229 -0.077,2.35265 c -0.0691,2.11148 -0.018,2.4155 0.49894,2.9657 0.47966,0.51058 0.89054,0.62592 2.45824,0.69006 l 1.88232,0.077 0.0814,1.12448 0.0814,1.12448 h -1.67169 c -1.54225,0 -1.80927,-0.0923 -3.4488,-1.19218 z m 8.55515,0.85755 c -1.14905,-0.59052 -1.67806,-1.60329 -1.71305,-3.2796 l -0.0323,-1.54514 1.25677,-0.0806 1.25677,-0.0806 v 0.95793 c 0,1.65621 0.34031,1.98148 2.07306,1.98148 0.8389,0 1.66815,-0.14288 1.84278,-0.3175 0.18455,-0.18456 0.3175,-1.06923 0.3175,-2.11279 v -1.79529 l -2.17125,-1.52523 c -3.26487,-2.29346 -4.36826,-3.48978 -4.59146,-4.97813 -0.25709,-1.71443 0.0139,-4.24039 0.54134,-5.04533 0.63663,-0.97161 1.9588,-1.42371 4.16235,-1.42324 3.19925,6.9e-4 4.47678,1.02752 4.8549,3.9022 l 0.18271,1.38906 h -1.4893 -1.48929 v -1.18132 c 0,-1.4012 -0.4196,-1.7291 -2.21267,-1.7291 -1.66812,0 -2.02067,0.44194 -2.02067,2.53299 v 1.70144 l 1.65365,1.19521 c 3.7379,2.70163 4.48056,3.35376 4.86373,4.27082 0.64209,1.53673 0.73447,3.28605 0.25976,4.91899 -0.61386,2.11159 -1.44294,2.57974 -4.55941,2.57457 -1.33754,-0.002 -2.62401,-0.14471 -2.98597,-0.33073 z"
       id="path828"
       inkscape:connector-curvature="0"
       sodipodi:nodetypes="cscccsscccsssscccssscccsscccccccscccccccssscccccccscssccccccssscsccccccccccccccccccccccccccccccccccccccccccscscccccccccccccccccsccccccccccscccccccsscscscccscccssscccsccc" />
  </g>
</svg>
